<svg xmlns="http://www.w3.org/2000/svg" viewBox="0 0 200 50">
  <style>
    .logo-text { font-family: 'Arial', sans-serif; font-weight: bold; }
    .primary { fill: #4f46e5; }
    .accent { fill: #34d399; }
  </style>
  
  <!-- 쇼핑백 아이콘 -->
  <path class="primary" d="M35 10h-5V8c0-4.42-3.58-8-8-8s-8 3.58-8 8v2h-5c-1.1 0-2 .9-2 2l-4 28c0 1.1.9 2 2 2h36c1.1 0 2-.9 2-2l-4-28c0-1.1-.9-2-2-2zm-13-2c0-2.21 1.79-4 4-4s4 1.79 4 4v2h-8v-2zm-8 14c-2.21 0-4-1.79-4-4s1.79-4 4-4 4 1.79 4 4-1.79 4-4 4zm16 0c-2.21 0-4-1.79-4-4s1.79-4 4-4 4 1.79 4 4-1.79 4-4 4z"/>
  
  <!-- 체크마크 -->
  <path class="accent" d="M33 18L25 26l-3-3-2 2 5 5 10-10z"/>
  
  <!-- 로고 텍스트 -->
  <text x="60" y="32" class="logo-text primary" font-size="24">ShopEase</text>
</svg>