<svg xmlns="http://www.w3.org/2000/svg" viewBox="0 0 99.61801 92.147851">
  <g transform="translate(-399.13,-792.238)">
    <path d="m 448.94238,792.23804 c -27.50324,0 -49.8125,17.59894 -49.8125,39.3125 0,14.09478 9.36006,26.41682 23.40625,33.46875 -0.77463,2.9112 -4.96875,18.72995 -5.15625,20.1875 -0.241,1.67487 0.62678,1.65054 1.3125,1.0625 0.51483,-0.44271 20.31244,-13.8251 23.5625,-16.15625 2.22347,0.32685 4.49904,0.5 6.8125,0.5 27.50323,0 49.8125,-17.59895 49.8125,-39.3125 0,-21.71356 -22.30927,-39.3125 -49.8125,-39.3125 z" fill="#3c1e1e" fill-rule="evenodd"/>
    <ellipse rx="4.9375" ry="5.0625" transform="matrix(0.873924,0,0,0.852798,416.35284,837.69009)" cy="0" cx="0" fill="#ffffff"/>
    <ellipse rx="4.9375" ry="5.0625" transform="matrix(0.873924,0,0,0.852798,456.63761,837.69009)" cy="0" cx="0" fill="#ffffff"/>
    <ellipse rx="4.9375" ry="5.0625" transform="matrix(0.873924,0,0,0.852798,436.88761,837.69009)" cy="0" cx="0" fill="#ffffff"/>
    <ellipse rx="4.9375" ry="5.0625" transform="matrix(0.873924,0,0,0.852798,476.11239,837.69009)" cy="0" cx="0" fill="#ffffff"/>
  </g>
</svg> 